<svg width="16" height="16" viewBox="0 0 16 16" fill="none" xmlns="http://www.w3.org/2000/svg">
<path d="M7.99998 1.33325C6.68144 1.33325 5.39251 1.72425 4.29618 2.45679C3.19985 3.18933 2.34537 4.23052 1.84079 5.4487C1.3362 6.66687 1.20418 8.00731 1.46141 9.30052C1.71865 10.5937 2.35359 11.7816 3.28594 12.714C4.21829 13.6463 5.40617 14.2813 6.69938 14.5385C7.99259 14.7957 9.33303 14.6637 10.5512 14.1591C11.7694 13.6545 12.8106 12.8 13.5431 11.7037C14.2757 10.6074 14.6666 9.31846 14.6666 7.99992C14.6667 7.12444 14.4942 6.25753 14.1592 5.44869C13.8242 4.63985 13.3331 3.90492 12.714 3.28586C12.095 2.66681 11.3601 2.17574 10.5512 1.84071C9.74237 1.50568 8.87546 1.33325 7.99998 1.33325ZM7.99998 11.3374C7.86813 11.3374 7.73924 11.2983 7.6296 11.2251C7.51997 11.1518 7.43452 11.0477 7.38406 10.9259C7.3336 10.804 7.3204 10.67 7.34613 10.5407C7.37185 10.4114 7.43534 10.2926 7.52858 10.1993C7.62181 10.1061 7.7406 10.0426 7.86992 10.0169C7.99924 9.99116 8.13329 10.0044 8.25511 10.0548C8.37692 10.1053 8.48104 10.1907 8.5543 10.3004C8.62755 10.41 8.66665 10.5389 8.66665 10.6707C8.66665 10.8475 8.59641 11.0171 8.47139 11.1421C8.34636 11.2672 8.17679 11.3374 7.99998 11.3374ZM8.66665 8.5437V8.66659C8.66665 8.8434 8.59641 9.01297 8.47139 9.13799C8.34636 9.26301 8.17679 9.33325 7.99998 9.33325C7.82317 9.33325 7.6536 9.26301 7.52858 9.13799C7.40355 9.01297 7.33332 8.8434 7.33332 8.66659V7.99992C7.33327 7.91236 7.35048 7.82564 7.38396 7.74474C7.41745 7.66383 7.46655 7.59032 7.52847 7.5284C7.59038 7.46649 7.6639 7.41738 7.7448 7.3839C7.82571 7.35041 7.91242 7.3332 7.99998 7.33325C8.11702 7.33318 8.23198 7.3023 8.3333 7.24372C8.43463 7.18513 8.51874 7.1009 8.57718 6.9995C8.63563 6.89809 8.66635 6.78309 8.66626 6.66605C8.66616 6.54901 8.63526 6.43406 8.57665 6.33275C8.51804 6.23144 8.4338 6.14735 8.33238 6.08892C8.23097 6.0305 8.11596 5.9998 7.99892 5.99992C7.88188 6.00004 7.76693 6.03097 7.66563 6.0896C7.56434 6.14823 7.48026 6.23249 7.42186 6.33392C7.33327 6.4869 7.18755 6.59843 7.01674 6.64397C6.84592 6.68951 6.66402 6.66532 6.51103 6.57674C6.35805 6.48816 6.24652 6.34243 6.20098 6.17162C6.15545 6.00081 6.17963 5.8189 6.26821 5.66592C6.42847 5.38625 6.65402 5.14951 6.92559 4.97589C7.19717 4.80228 7.50671 4.69693 7.82782 4.66886C8.14892 4.64078 8.47205 4.69081 8.76964 4.81466C9.06722 4.93852 9.33043 5.13253 9.53679 5.38013C9.74316 5.62774 9.88656 5.9216 9.95475 6.23663C10.023 6.55166 10.0139 6.87852 9.92844 7.18931C9.84296 7.50009 9.68356 7.78559 9.46384 8.02143C9.24413 8.25727 8.97062 8.43646 8.66665 8.5437Z" fill="#BAC1CE"/>
</svg>
