<svg width="34" height="85" viewBox="0 0 34 85" fill="none" xmlns="http://www.w3.org/2000/svg">
<path d="M8 37L16 45H0L8 37Z" fill="#B8B6B6"/>
<path d="M3.5 59C2.11929 59 1 60.1193 1 61.5V66.5C1 67.8807 2.11929 69 3.5 69H4V72.5C4 73.342 4.99168 72.2342 5.62533 71.6797L8.68787 69H12.5C13.8807 69 15 67.8807 15 66.5V61.5C15 60.1193 13.8807 59 12.5 59H3.5Z" fill="#B8B6B6"/>
<path d="M5.09375 22.7368L2.26349 19.9065L10.0871 12.0831L12.9173 14.9135L5.09375 22.7368Z" fill="#B8B6B6"/>
<path d="M14.7413 11.7623L13.2378 10.2587C12.8714 9.89233 12.2516 9.91821 11.8532 10.3165L10.4407 11.7291L13.271 14.5594L14.6835 13.1468C15.0817 12.7485 15.1077 12.1286 14.7413 11.7623ZM2.00066 20.3516L1 24L4.64803 22.9993L2.00066 20.3516Z" fill="#B8B6B6"/>
<line x1="33.5" y1="2.18557e-08" x2="33.5" y2="85" stroke="#D6DAE2"/>
</svg>
