<svg width="40" height="40" viewBox="0 0 40 40" fill="none" xmlns="http://www.w3.org/2000/svg">
<path d="M20.0922 39.6306C12.4984 39.6306 6.27686 33.4645 6.27686 25.8891V14.1106C6.27686 6.53529 12.4984 0.369141 20.0922 0.369141C26.8368 0.369141 32.5722 5.1876 33.6861 11.8215C33.8646 12.8923 33.1568 13.9015 32.0861 14.086C31.0153 14.2645 30.0122 13.5445 29.8277 12.4738C29.0277 7.73529 24.9907 4.29529 20.1661 4.29529C14.7384 4.29529 10.363 8.70145 10.363 14.1106V25.8891C10.363 31.3045 14.7384 35.7045 20.1661 35.7045C24.9846 35.7045 29.0399 32.2645 29.8338 27.526C30.0122 26.4553 31.0214 25.7353 32.0861 25.9138C33.1568 26.0923 33.8461 27.1076 33.6677 28.1723C32.5661 34.8123 26.8307 39.6306 20.0922 39.6306Z" fill="white"/>
<g opacity="0.5">
<path d="M15.7293 21.7662C14.6462 21.7662 13.8401 20.8862 13.8401 19.8031V14.1231C13.8401 10.6277 16.6586 7.78467 20.1662 7.78467C22.5601 7.78467 24.714 9.11391 25.8093 11.2554C26.3016 12.2216 25.914 13.4031 24.9478 13.8955C23.9816 14.3877 22.794 14.0062 22.3016 13.0401C21.8832 12.2154 21.0093 11.7047 20.0986 11.7047C18.757 11.7047 17.6247 12.7877 17.6247 14.117V19.797C17.6186 20.8862 16.8123 21.7662 15.7293 21.7662Z" fill="white"/>
</g>
</svg>
