<svg width="24" height="24" viewBox="0 0 24 24" fill="none" xmlns="http://www.w3.org/2000/svg">
<path d="M17.5801 10.2145C14.8441 4.32606 13.4209 2.08926 8.95086 2.18286C7.35846 2.21526 7.74006 1.02846 6.52566 1.47846C5.31366 1.92846 6.35406 2.58726 5.11326 3.60606C1.63086 6.46566 1.95126 9.11046 3.56646 15.4141C4.24686 18.0697 1.92606 18.1993 2.84406 20.7721C3.51486 22.6489 8.45886 23.4349 13.6741 21.5005C18.8905 19.5649 22.1773 15.7237 21.5065 13.8469C20.5885 11.2729 18.7333 12.6937 17.5801 10.2145ZM13.1089 19.9141C8.45046 21.6421 4.62246 20.6269 4.46046 20.1745C4.18206 19.3945 5.96406 16.7953 11.2897 14.8189C16.6153 12.8425 19.5877 13.5757 19.8985 14.4457C20.0821 14.9605 17.7685 18.1849 13.1089 19.9141ZM11.6113 15.7213C9.17646 16.6249 7.48446 17.6581 6.38766 18.5881C7.15926 19.2889 8.60406 19.4593 10.0429 18.9253C11.8753 18.2473 13.0021 16.6861 12.5569 15.4405L12.5377 15.3973C12.2365 15.4957 11.9281 15.6025 11.6113 15.7213Z" fill="#AAAAAA"/>
</svg>
